<mxfile host="app.diagrams.net" modified="2020-04-04T14:06:20.822Z" agent="5.0 (Windows NT 10.0; Win64; x64) AppleWebKit/537.36 (KHTML, like Gecko) Chrome/75.0.3770.100 Safari/537.36" etag="BH4UMwxt0i44nOZ5Qpmt" version="12.9.7" type="github">
  <diagram id="S4QJ8JYzNLD0_FDSVlSB" name="Page-1">
    <mxGraphModel dx="1422" dy="762" grid="1" gridSize="10" guides="1" tooltips="1" connect="1" arrows="1" fold="1" page="1" pageScale="1" pageWidth="827" pageHeight="1169" math="0" shadow="0">
      <root>
        <mxCell id="0" />
        <mxCell id="1" parent="0" />
        <mxCell id="5odIk9DSI-TOIc7SmUsg-1" value="" style="group" vertex="1" connectable="0" parent="1">
          <mxGeometry x="190" y="260" width="360" height="60" as="geometry" />
        </mxCell>
        <mxCell id="5odIk9DSI-TOIc7SmUsg-2" value="" style="rounded=0;whiteSpace=wrap;html=1;fontSize=9;fontColor=#FFFFFF;" vertex="1" parent="5odIk9DSI-TOIc7SmUsg-1">
          <mxGeometry width="360" height="60" as="geometry" />
        </mxCell>
        <mxCell id="5odIk9DSI-TOIc7SmUsg-3" value="&lt;font color=&quot;#000000&quot;&gt;Table读取FB数据&lt;/font&gt;" style="rounded=0;whiteSpace=wrap;html=1;fillColor=#f0a30a;strokeColor=#BD7000;fontColor=#FFFFFF;" vertex="1" parent="5odIk9DSI-TOIc7SmUsg-1">
          <mxGeometry x="251.1049723756906" y="13" width="98.45303867403315" height="30" as="geometry" />
        </mxCell>
        <mxCell id="5odIk9DSI-TOIc7SmUsg-4" value="&lt;font color=&quot;#000000&quot;&gt;填充UE Struct&lt;/font&gt;" style="rounded=0;whiteSpace=wrap;html=1;fillColor=#f0a30a;strokeColor=#BD7000;fontColor=#FFFFFF;" vertex="1" parent="5odIk9DSI-TOIc7SmUsg-1">
          <mxGeometry x="114.3646408839779" y="13" width="89.50276243093923" height="30" as="geometry" />
        </mxCell>
        <mxCell id="5odIk9DSI-TOIc7SmUsg-5" value="&lt;font color=&quot;#000000&quot;&gt;客户端 / DS&lt;/font&gt;" style="rounded=0;whiteSpace=wrap;html=1;fillColor=#f0a30a;strokeColor=#BD7000;fontColor=#FFFFFF;" vertex="1" parent="5odIk9DSI-TOIc7SmUsg-1">
          <mxGeometry x="8.950276243093922" y="13" width="69.61325966850829" height="30" as="geometry" />
        </mxCell>
        <mxCell id="5odIk9DSI-TOIc7SmUsg-6" style="edgeStyle=orthogonalEdgeStyle;rounded=0;orthogonalLoop=1;jettySize=auto;html=1;exitX=0;exitY=0.5;exitDx=0;exitDy=0;entryX=1;entryY=0.5;entryDx=0;entryDy=0;fontSize=9;fontColor=#FFFFFF;fillColor=#f0a30a;strokeColor=#BD7000;" edge="1" parent="5odIk9DSI-TOIc7SmUsg-1" source="5odIk9DSI-TOIc7SmUsg-3" target="5odIk9DSI-TOIc7SmUsg-4">
          <mxGeometry relative="1" as="geometry" />
        </mxCell>
        <mxCell id="5odIk9DSI-TOIc7SmUsg-7" style="edgeStyle=orthogonalEdgeStyle;rounded=0;orthogonalLoop=1;jettySize=auto;html=1;entryX=1;entryY=0.5;entryDx=0;entryDy=0;fontSize=9;fontColor=#FFFFFF;fillColor=#f0a30a;strokeColor=#BD7000;" edge="1" parent="5odIk9DSI-TOIc7SmUsg-1" source="5odIk9DSI-TOIc7SmUsg-4" target="5odIk9DSI-TOIc7SmUsg-5">
          <mxGeometry relative="1" as="geometry" />
        </mxCell>
        <mxCell id="5odIk9DSI-TOIc7SmUsg-8" value="" style="rounded=0;whiteSpace=wrap;html=1;fontSize=9;fontColor=#FFFFFF;" vertex="1" parent="1">
          <mxGeometry x="191" y="173" width="359" height="60" as="geometry" />
        </mxCell>
        <mxCell id="5odIk9DSI-TOIc7SmUsg-9" style="edgeStyle=orthogonalEdgeStyle;rounded=0;orthogonalLoop=1;jettySize=auto;html=1;entryX=0;entryY=0.5;entryDx=0;entryDy=0;fontSize=9;fontColor=#FFFFFF;fillColor=#f0a30a;strokeColor=#BD7000;" edge="1" parent="1" source="5odIk9DSI-TOIc7SmUsg-10" target="5odIk9DSI-TOIc7SmUsg-12">
          <mxGeometry relative="1" as="geometry" />
        </mxCell>
        <mxCell id="5odIk9DSI-TOIc7SmUsg-10" value="&lt;font color=&quot;#000000&quot;&gt;蓝图序列化为FB&lt;/font&gt;" style="rounded=0;whiteSpace=wrap;html=1;fillColor=#f0a30a;strokeColor=#BD7000;fontColor=#FFFFFF;" vertex="1" parent="1">
          <mxGeometry x="200" y="188" width="90" height="30" as="geometry" />
        </mxCell>
        <mxCell id="5odIk9DSI-TOIc7SmUsg-11" style="edgeStyle=orthogonalEdgeStyle;rounded=0;orthogonalLoop=1;jettySize=auto;html=1;entryX=0;entryY=0.5;entryDx=0;entryDy=0;fontSize=9;fontColor=#FFFFFF;fillColor=#f0a30a;strokeColor=#BD7000;" edge="1" parent="1" source="5odIk9DSI-TOIc7SmUsg-12" target="5odIk9DSI-TOIc7SmUsg-13">
          <mxGeometry relative="1" as="geometry" />
        </mxCell>
        <mxCell id="5odIk9DSI-TOIc7SmUsg-12" value="&lt;font color=&quot;#000000&quot;&gt;存入UE Table&lt;/font&gt;" style="rounded=0;whiteSpace=wrap;html=1;fillColor=#f0a30a;strokeColor=#BD7000;fontColor=#FFFFFF;" vertex="1" parent="1">
          <mxGeometry x="319" y="188" width="90" height="30" as="geometry" />
        </mxCell>
        <mxCell id="5odIk9DSI-TOIc7SmUsg-13" value="&lt;font color=&quot;#000000&quot;&gt;安装包&lt;/font&gt;" style="rounded=0;whiteSpace=wrap;html=1;fillColor=#f0a30a;strokeColor=#BD7000;fontColor=#FFFFFF;" vertex="1" parent="1">
          <mxGeometry x="450" y="188" width="90" height="30" as="geometry" />
        </mxCell>
        <mxCell id="5odIk9DSI-TOIc7SmUsg-14" value="&lt;font color=&quot;#000000&quot;&gt;蓝图ID&lt;/font&gt;" style="text;html=1;align=center;verticalAlign=middle;resizable=0;points=[];autosize=1;fontSize=9;fontColor=#FFFFFF;" vertex="1" parent="1">
          <mxGeometry x="490" y="236" width="50" height="20" as="geometry" />
        </mxCell>
        <mxCell id="5odIk9DSI-TOIc7SmUsg-15" value="&lt;font color=&quot;#000000&quot;&gt;开发期&lt;/font&gt;" style="text;html=1;align=center;verticalAlign=middle;resizable=0;points=[];autosize=1;fontSize=9;fontColor=#FFFFFF;" vertex="1" parent="1">
          <mxGeometry x="120" y="107" width="50" height="20" as="geometry" />
        </mxCell>
        <mxCell id="5odIk9DSI-TOIc7SmUsg-16" value="&lt;font color=&quot;#000000&quot;&gt;构建期&lt;/font&gt;" style="text;html=1;align=center;verticalAlign=middle;resizable=0;points=[];autosize=1;fontSize=9;fontColor=#FFFFFF;" vertex="1" parent="1">
          <mxGeometry x="120" y="193" width="50" height="20" as="geometry" />
        </mxCell>
        <mxCell id="5odIk9DSI-TOIc7SmUsg-17" value="" style="group" vertex="1" connectable="0" parent="1">
          <mxGeometry x="191" y="87" width="359" height="60" as="geometry" />
        </mxCell>
        <mxCell id="5odIk9DSI-TOIc7SmUsg-18" value="" style="rounded=0;whiteSpace=wrap;html=1;fontSize=9;fontColor=#FFFFFF;" vertex="1" parent="5odIk9DSI-TOIc7SmUsg-17">
          <mxGeometry width="359" height="60" as="geometry" />
        </mxCell>
        <mxCell id="5odIk9DSI-TOIc7SmUsg-26" style="edgeStyle=orthogonalEdgeStyle;rounded=0;orthogonalLoop=1;jettySize=auto;html=1;entryX=0;entryY=0.5;entryDx=0;entryDy=0;fillColor=#f0a30a;strokeColor=#BD7000;" edge="1" parent="5odIk9DSI-TOIc7SmUsg-17" source="5odIk9DSI-TOIc7SmUsg-19" target="5odIk9DSI-TOIc7SmUsg-25">
          <mxGeometry relative="1" as="geometry" />
        </mxCell>
        <mxCell id="5odIk9DSI-TOIc7SmUsg-19" value="&lt;font color=&quot;#000000&quot;&gt;PUBG.proto&lt;/font&gt;" style="rounded=0;whiteSpace=wrap;html=1;fillColor=#f0a30a;strokeColor=#BD7000;fontColor=#FFFFFF;" vertex="1" parent="5odIk9DSI-TOIc7SmUsg-17">
          <mxGeometry x="9.790909090909091" y="15" width="76.15151515151516" height="30" as="geometry" />
        </mxCell>
        <mxCell id="5odIk9DSI-TOIc7SmUsg-20" value="&lt;font color=&quot;#000000&quot;&gt;提交svn&lt;/font&gt;" style="rounded=0;whiteSpace=wrap;html=1;fillColor=#f0a30a;strokeColor=#BD7000;fontColor=#FFFFFF;" vertex="1" parent="5odIk9DSI-TOIc7SmUsg-17">
          <mxGeometry x="259.0030303030303" y="15" width="76.15151515151516" height="30" as="geometry" />
        </mxCell>
        <mxCell id="5odIk9DSI-TOIc7SmUsg-27" style="edgeStyle=orthogonalEdgeStyle;rounded=0;orthogonalLoop=1;jettySize=auto;html=1;entryX=0;entryY=0.5;entryDx=0;entryDy=0;fillColor=#f0a30a;strokeColor=#BD7000;" edge="1" parent="5odIk9DSI-TOIc7SmUsg-17" source="5odIk9DSI-TOIc7SmUsg-25" target="5odIk9DSI-TOIc7SmUsg-20">
          <mxGeometry relative="1" as="geometry" />
        </mxCell>
        <mxCell id="5odIk9DSI-TOIc7SmUsg-25" value="&lt;font color=&quot;#000000&quot;&gt;生成代码&lt;/font&gt;" style="rounded=0;whiteSpace=wrap;html=1;fillColor=#f0a30a;strokeColor=#BD7000;fontColor=#FFFFFF;" vertex="1" parent="5odIk9DSI-TOIc7SmUsg-17">
          <mxGeometry x="128.99848484848485" y="15" width="76.15151515151516" height="30" as="geometry" />
        </mxCell>
        <mxCell id="5odIk9DSI-TOIc7SmUsg-22" value="&lt;font color=&quot;#000000&quot;&gt;运行时&lt;/font&gt;" style="text;html=1;align=center;verticalAlign=middle;resizable=0;points=[];autosize=1;fontSize=9;fontColor=#FFFFFF;" vertex="1" parent="1">
          <mxGeometry x="120" y="280" width="50" height="20" as="geometry" />
        </mxCell>
        <mxCell id="5odIk9DSI-TOIc7SmUsg-23" value="" style="endArrow=classic;html=1;fontSize=9;fontColor=#FFFFFF;fillColor=#f0a30a;strokeColor=#BD7000;entryX=0.801;entryY=0.002;entryDx=0;entryDy=0;entryPerimeter=0;" edge="1" parent="1">
          <mxGeometry width="50" height="50" relative="1" as="geometry">
            <mxPoint x="495.53" y="218" as="sourcePoint" />
            <mxPoint x="495.799" y="273.05999999999995" as="targetPoint" />
          </mxGeometry>
        </mxCell>
        <mxCell id="5odIk9DSI-TOIc7SmUsg-24" style="edgeStyle=orthogonalEdgeStyle;rounded=0;orthogonalLoop=1;jettySize=auto;html=1;fillColor=#f0a30a;strokeColor=#BD7000;" edge="1" parent="1" source="5odIk9DSI-TOIc7SmUsg-20" target="5odIk9DSI-TOIc7SmUsg-10">
          <mxGeometry relative="1" as="geometry">
            <mxPoint x="440" y="150" as="targetPoint" />
            <Array as="points">
              <mxPoint x="499" y="160" />
              <mxPoint x="245" y="160" />
            </Array>
          </mxGeometry>
        </mxCell>
      </root>
    </mxGraphModel>
  </diagram>
</mxfile>
